<?xml version="1.0" encoding="UTF-8"?>
<svg id="Layer_1" xmlns="http://www.w3.org/2000/svg" version="1.1" xmlns:xlink="http://www.w3.org/1999/xlink" viewBox="0 0 18 18">
  <!-- Generator: Adobe Illustrator 29.3.1, SVG Export Plug-In . SVG Version: 2.1.0 Build 151)  -->
  <defs>
    <style>
      .st0 {
        fill: #3471b8;
      }
    </style>
    <symbol id="GearSymbol" viewBox="0 0 17.17 17.17">
      <path class="st0" d="M15.01,7.87l2.16-1.34c-.03-.13-.04-.27-.07-.4-.17-.59-.41-1.15-.68-1.68l-2.49.27c-.72.08-1.3-.58-1.13-1.28l.54-2.26c-.65-.41-1.34-.76-2.08-.99l-1.44,1.8c-.45.56-1.33.51-1.71-.11l-1.16-1.88c-.25.05-.51.07-.76.14-.52.15-1,.36-1.46.59l.24,2.23c.08.72-.58,1.3-1.28,1.13l-2.22-.53c-.44.63-.81,1.31-1.07,2.03l1.84,1.48c.56.45.51,1.33-.11,1.71l-2.11,1.3c.06.32.09.64.18.97.12.41.3.78.46,1.15l2.55-.28c.72-.08,1.3.58,1.13,1.28l-.62,2.63c.59.4,1.21.73,1.88.98l1.73-2.16c.45-.56,1.33-.51,1.71.11l1.48,2.39c.2-.04.4-.05.6-.11.48-.14.93-.34,1.37-.55l-.31-2.81c-.08-.72.58-1.3,1.28-1.13l2.67.63c.37-.6.69-1.23.91-1.91l-2.13-1.71c-.56-.45-.51-1.33.11-1.71ZM9.63,12c-1.88.55-3.85-.53-4.39-2.41s.53-3.85,2.41-4.39,3.85.53,4.39,2.41-.53,3.85-2.41,4.39Z"/>
    </symbol>
  </defs>
  <use width="17.17" height="17.17" transform="translate(.36 .21)" xlink:href="#GearSymbol"/>
</svg>